<?xml version="1.0" encoding="UTF-8" standalone="no"?>
<svg width="200px" height="260px" viewBox="0 0 200 260" version="1.1" xmlns="http://www.w3.org/2000/svg" xmlns:xlink="http://www.w3.org/1999/xlink">
    <!-- Generator: Sketch 3.7.1 (28215) - http://www.bohemiancoding.com/sketch -->
    <title>teach-logo</title>
    <desc>Created with Sketch.</desc>
    <defs>
        <polyline id="path-1" points="0 0.670074945 199.1056 0.670074945 199.1056 258.262856 0 258.262856"></polyline>
        <polygon id="path-3" points="0 0.670074945 199.1056 0.670074945 199.1056 258.262856 0 258.262856"></polygon>
    </defs>
    <g id="Page-1" stroke="none" stroke-width="1" fill="none" fill-rule="evenodd" opacity="0.25">
        <g id="teach-logo">
            <g id="Group">
                <path d="M99.271406,247.351574 C94.3697067,247.351574 89.4485562,246.948176 84.6441128,246.151138 L84.9715411,244.17969 C90.3044084,245.064564 95.8058527,245.45495 101.210041,245.331328 L101.255427,247.328802 C100.594087,247.345068 99.9359882,247.351574 99.271406,247.351574" id="Fill-1" fill="#FFFFFF"></path>
                <mask id="mask-2" fill="white">
                    <use xlink:href="#path-1"></use>
                </mask>
                <g id="Clip-4"></g>
                <path d="M99.553124,258.262856 C44.6586303,258.262856 -0.00129674585,213.446572 -0.00129674585,158.35989 C-0.00129674585,137.366897 6.41759521,117.278297 18.5551364,100.267238 L20.1728268,101.428636 C8.27842551,118.10136 1.99245,137.786562 1.99245,158.35989 C1.99245,212.343733 45.7576224,256.265382 99.553124,256.265382 C153.348626,256.265382 197.113798,212.343733 197.113798,158.35989 C197.113798,131.507858 186.496691,106.458106 167.214081,87.8269458 L168.595115,86.3857718 C188.269991,105.397558 199.107545,130.958064 199.107545,158.35989 C199.107545,213.446572 154.447618,258.262856 99.553124,258.262856" id="Fill-3" fill="#FFFFFF" mask="url(#mask-2)"></path>
                <path d="M160.275518,81.7271686 C149.473625,73.0963904 137.245311,66.9770938 123.934215,63.538446 L124.430221,61.6060366 C138.013633,65.1130019 150.49157,71.3559206 161.517152,80.1656256 L160.275518,81.7271686 Z" id="Fill-6" fill="#FFFFFF" mask="url(#mask-2)"></path>
                <path d="M24.853431,95.3822113 L23.3297546,94.0971916 C42.310872,71.4483119 70.0936518,58.4582262 99.5524756,58.4582262 C104.865892,58.4582262 110.198759,58.8843973 115.405194,59.7204734 L115.087491,61.6919215 C109.988038,60.8721114 104.75891,60.4589532 99.5524756,60.4589532 C70.6804293,60.4589532 43.4552502,73.1887817 24.853431,95.3822113" id="Fill-8" fill="#FFFFFF" mask="url(#mask-2)"></path>
                <path d="M13.4401224,180.288834 C11.9326553,174.524138 11.0022402,168.564248 10.6748118,162.57508 L12.6620749,162.467724 C12.9830194,168.320257 13.8939834,174.146765 15.3657899,179.781332 L13.4401224,180.288834 Z" id="Fill-10" fill="#FFFFFF" mask="url(#mask-2)"></path>
                <path d="M158.529449,224.493513 L157.210011,222.997034 C159.686795,220.794608 162.069566,218.423015 164.283759,215.950572 L165.765291,217.287643 C163.499228,219.81539 161.064588,222.242288 158.529449,224.493513" id="Fill-12" fill="#FFFFFF" mask="url(#mask-2)"></path>
                <path d="M188.549116,159.451995 L186.558611,159.40645 C186.571578,158.801352 186.578062,158.189747 186.578062,157.581396 C186.578062,150.668315 185.770838,143.79102 184.182324,137.141449 L186.117717,136.676239 C187.741892,143.478711 188.568567,150.512161 188.568567,157.581396 C188.568567,158.206013 188.562083,158.830631 188.549116,159.451995" id="Fill-14" fill="#FFFFFF" mask="url(#mask-2)"></path>
                <path d="M157.177268,92.1374551 C149.746914,85.5464424 141.340759,80.3185267 132.185733,76.6001024 L132.934604,74.7457701 C142.297109,78.5520312 150.897776,83.8970627 158.496707,90.6409764 L157.177268,92.1374551 Z" id="Fill-16" fill="#FFFFFF" mask="url(#mask-2)"></path>
                <path d="M36.7296778,97.1490321 L35.2935318,95.7664159 C44.4809761,86.1499137 55.8728884,78.6057092 68.2341182,73.9405995 L68.934361,75.8111979 C56.8486897,80.3689515 45.7128847,87.7472421 36.7296778,97.1490321" id="Fill-18" fill="#FFFFFF" mask="url(#mask-2)"></path>
                <path d="M99.2821041,67.7269598 C95.0611964,67.7269598 90.5420371,77.8216845 90.5420371,92.8482825 C90.5420371,107.878134 95.0611964,117.972858 99.2821041,117.972858 C103.503012,117.972858 108.022171,107.878134 108.022171,92.8482825 C108.022171,77.8216845 103.503012,67.7269598 99.2821041,67.7269598 M99.2821041,119.970332 C93.2652034,119.970332 88.5515322,108.05706 88.5515322,92.8482825 C88.5515322,77.6427577 93.2652034,65.729486 99.2821041,65.729486 C105.299005,65.729486 110.012676,77.6427577 110.012676,92.8482825 C110.012676,108.05706 105.299005,119.970332 99.2821041,119.970332" id="Fill-20" fill="#FFFFFF" mask="url(#mask-2)"></path>
                <path d="M99.2834009,84.0776161 C84.3092282,84.0776161 74.2497222,88.6125971 74.2497222,92.8482825 C74.2497222,97.087221 84.3092282,101.622202 99.2834009,101.622202 C114.257574,101.622202 124.31708,97.087221 124.31708,92.8482825 C124.31708,88.6125971 114.257574,84.0776161 99.2834009,84.0776161 M99.2834009,103.619676 C84.1276838,103.619676 72.2592174,98.8895019 72.2592174,92.8482825 C72.2592174,86.8103163 84.1276838,82.0801423 99.2834009,82.0801423 C114.439118,82.0801423 126.307584,86.8103163 126.307584,92.8482825 C126.307584,98.8895019 114.439118,103.619676 99.2834009,103.619676" id="Fill-22" fill="#FFFFFF" mask="url(#mask-2)"></path>
                <path d="M84.4570572,74.1175744 C83.2056975,74.1175744 82.2266543,74.4396427 81.5815233,75.0837791 C78.595766,78.0799897 82.5151803,88.425212 93.1031102,99.0534639 C97.9367303,103.904007 103.172342,107.75256 107.843869,109.886668 C112.152307,111.854863 115.481702,112.118374 116.985927,110.612135 C118.48691,109.105897 118.224319,105.761592 116.262991,101.43807 C114.133086,96.750188 110.301202,91.4962465 105.46434,86.6457036 C100.63072,81.7951607 95.3951084,77.9466079 90.7268234,75.8124992 C88.2662481,74.686887 86.1233756,74.1175744 84.4570572,74.1175744 M114.116877,113.569307 C112.136097,113.569307 109.733876,112.94469 107.017193,111.705215 C102.134945,109.47351 96.6950962,105.481816 91.6961409,100.465359 C80.9785365,89.7102317 75.9179858,77.9433547 80.174554,73.671884 C82.330394,71.5084964 86.3697573,71.6256121 91.550257,73.9939523 C96.4325051,76.2256574 101.875596,80.2173517 106.874551,85.2338085 C111.873506,90.2470121 115.851274,95.7091594 118.075193,100.6085 C120.435271,105.810391 120.548736,109.863896 118.392896,112.02403 C117.368467,113.055299 115.916112,113.569307 114.116877,113.569307" id="Fill-24" fill="#FFFFFF" mask="url(#mask-2)"></path>
                <path d="M114.110717,74.1195263 C112.447641,74.1195263 110.304768,74.6888389 107.844193,75.8144511 C103.172666,77.9485599 97.9370545,81.7971127 93.1034343,86.6476556 C82.5122626,97.2726543 78.5960901,107.617877 81.5818475,110.614087 C83.0828308,112.120325 86.4154676,111.856815 90.7239057,109.88862 C95.3954326,107.751258 100.631044,103.905959 105.464664,99.0521626 C110.298284,94.2016197 114.13341,88.9476782 116.263315,84.2597961 C118.224643,79.9395272 118.487234,76.5952226 116.986251,75.0857311 C116.34112,74.4415946 115.362077,74.1195263 114.110717,74.1195263 M84.4508977,113.568006 C82.6516628,113.568006 81.1993074,113.057251 80.1748782,112.025982 C75.91831,107.757765 80.9788606,95.9876345 91.6932232,85.2357605 C96.6921785,80.2193036 102.135269,76.2276094 107.017517,73.9959042 C112.201259,71.6243108 116.240622,71.5137015 118.39322,73.673836 C120.54906,75.8339704 120.432353,79.890729 118.072276,85.0893658 C115.848357,89.9887069 111.870589,95.4508541 106.871633,100.467311 C101.87592,105.483768 96.4328293,109.475462 91.5505812,111.703914 C88.8338986,112.946642 86.4316769,113.568006 84.4508977,113.568006" id="Fill-26" fill="#FFFFFF" mask="url(#mask-2)"></path>
                <path d="M63.6643859,237.888299 L64.234954,238.135543 C65.4636207,238.675576 66.750641,238.994391 68.066838,239.082228 L68.6925179,239.127773 L69.6423842,241.528646 L72.3590668,241.121994 L72.569788,238.516169 L73.143598,238.285191 C74.3592973,237.803715 75.4744987,237.123793 76.4632674,236.261691 L76.9365796,235.851786 L79.3582525,236.896068 L80.9889104,234.683882 L79.2707222,232.653876 L79.5171039,232.081311 C80.0358022,230.890634 80.3470212,229.63164 80.4442772,228.340114 L80.4929051,227.71875 L82.963206,226.733026 L82.5579729,224.010085 L79.9028858,223.795373 L79.6759552,223.213048 C79.2091267,222.009358 78.5445445,220.896759 77.7016597,219.907782 L77.2996685,219.436066 L78.3500326,216.986395 L76.1455647,215.346775 L74.1356086,217.061219 L73.5650404,216.807468 C72.3655505,216.273941 71.1012233,215.951873 69.8012356,215.84777 L69.1820395,215.795719 L68.2224475,213.36882 L65.505765,213.775472 L65.2982856,216.352018 L64.7115081,216.57649 C63.4828414,217.048206 62.344947,217.731381 61.3270015,218.606496 L60.8536892,219.009894 L58.5098211,217.998145 L56.8759213,220.210331 L58.5163048,222.149247 L58.2601975,222.725066 C57.7090806,223.958034 57.3816522,225.265826 57.2843963,226.60615 L57.2390102,227.230768 L54.9016258,228.161187 L55.3068589,230.887381 L57.8128202,231.08908 L58.0397507,231.674659 C58.5227886,232.927146 59.2165476,234.078784 60.1048185,235.100294 L60.5165353,235.575263 L59.5115573,237.911071 L61.7192671,239.547438 L63.6643859,237.888299 Z M68.3748152,243.737578 L67.2985161,241.017891 C66.1800728,240.887762 65.0810807,240.617746 64.0177491,240.20784 L61.8035556,242.094705 L57.0607076,238.574727 L58.1986021,235.923357 C57.48215,235.018963 56.8888888,234.033239 56.4253022,232.982451 L53.5724613,232.74822 L52.6971578,226.88918 L55.3587287,225.831885 C55.494887,224.690007 55.7769292,223.570901 56.1983716,222.49734 L54.3342995,220.294914 L57.8484807,215.535461 L60.5165353,216.690353 C61.41129,215.987658 62.3838493,215.405333 63.4147623,214.953136 L63.6481765,212.035003 L69.4900166,211.156635 L70.582525,213.918614 C71.6782752,214.058502 72.7545743,214.331772 73.7887291,214.735171 L76.0612762,212.799508 L80.8041241,216.322739 L79.611118,219.097731 C80.2854258,219.96634 80.8462684,220.903265 81.287162,221.902002 L84.2923705,222.145993 L85.1676739,228.005033 L82.3667029,229.120885 C82.2337864,230.207459 81.9711954,231.27126 81.5789298,232.296023 L83.5305323,234.599299 L80.0195929,239.358751 L77.2802173,238.174581 C76.4113976,238.864263 75.4647731,239.443335 74.4565532,239.898785 L74.2166552,242.862464 L68.3748152,243.737578 Z" id="Fill-28" fill="#FFFFFF" mask="url(#mask-2)"></path>
                <path d="M68.4694776,224.783049 C66.9976711,225.004268 65.9797256,226.383631 66.2001724,227.86059 C66.3071539,228.573044 66.6832102,229.204168 67.263504,229.633592 C67.8437977,230.063016 68.5505242,230.23869 69.2637344,230.131334 C69.9769447,230.027231 70.6058664,229.649858 71.0337925,229.067533 C71.4617187,228.48846 71.6400212,227.772753 71.5330397,227.060299 C71.3125929,225.58334 69.9380423,224.555324 68.4694776,224.783049 M68.8520176,232.16134 C67.8600071,232.16134 66.8939314,231.845778 66.0802234,231.237427 C65.0720035,230.492441 64.4171468,229.396107 64.2323606,228.153379 C63.8498205,225.589846 65.6166367,223.192227 68.1744679,222.805095 L68.1744679,222.805095 C70.7258154,222.417962 73.1183115,224.19747 73.5008515,226.764257 C73.6888797,228.006985 73.3809025,229.246459 72.6352737,230.254956 C71.8896448,231.266706 70.7971364,231.923855 69.5587441,232.109288 C69.322088,232.145074 69.0886738,232.16134 68.8520176,232.16134" id="Fill-30" fill="#FFFFFF" mask="url(#mask-2)"></path>
                <path d="M32.6206144,166.67836 L39.791619,168.259422 L42.1808732,163.246219 L42.8000693,163.239712 C45.6237334,163.210433 48.4020114,162.699679 51.0570985,161.726967 L51.643876,161.512255 L55.6508207,165.429126 L61.8395403,161.460204 L59.9657425,156.128185 L60.4001524,155.682495 C62.3517549,153.681768 63.9467523,151.381745 65.1365166,148.844238 L65.4023495,148.278179 L71.0594033,148.206608 L72.6381913,141.010497 L67.5354964,138.560827 L67.5290127,137.936209 C67.5095615,135.131939 67.0265237,132.369959 66.0928667,129.731602 L65.8853873,129.146024 L69.8177691,125.095772 L65.8659361,118.885385 L60.5881805,120.75273 L60.1440451,120.310293 C58.1405727,118.309566 55.8323651,116.676452 53.2842595,115.456497 L52.7266588,115.189733 L52.6553378,109.633243 L45.4843332,108.045674 L43.1210139,113.003573 L42.4920922,113.003573 C39.6100745,112.967788 36.7993779,113.494809 34.092421,114.46752 L33.5056435,114.675725 L29.6251315,110.879224 L23.4364119,114.848146 L25.2259212,119.939427 L24.7817857,120.385117 C22.7264436,122.447655 21.063367,124.829008 19.8347003,127.464112 L19.5721093,128.033424 L14.2133071,128.101742 L12.634519,135.297852 L17.4681392,137.620648 L17.4681392,138.245265 C17.4811066,141.156892 17.9933212,144.022974 18.9950574,146.755674 L19.2122623,147.347759 L15.4581831,151.215831 L19.4100161,157.422965 L24.5224366,155.614177 L24.966572,156.050108 C27.0154305,158.073608 29.3755079,159.709974 31.9819671,160.916917 L32.5525353,161.183681 L32.6206144,166.67836 Z M40.9068204,170.552939 L30.6495607,168.288701 L30.5749978,162.458941 C28.176018,161.278024 25.9747919,159.749013 24.0199476,157.910947 L18.5800987,159.83685 L12.9295287,150.955574 L16.9170222,146.850017 C16.0417187,144.273471 15.5619228,141.602582 15.4873599,138.882895 L10.3522463,136.416958 L12.6085841,126.127041 L18.3045402,126.052217 C19.507272,123.618812 21.0601252,121.393614 22.9339229,119.425419 L21.0341902,114.015323 L29.8812388,108.341717 L34.0113743,112.378956 C36.5529962,111.53312 39.1886321,111.074417 41.8631705,111.012606 L44.3691318,105.755411 L54.6231496,108.022902 L54.7009544,113.927486 C57.0448225,115.114909 59.1909369,116.637414 61.0971533,118.455961 L66.6926116,116.4715 L72.3464235,125.352776 L68.1709019,129.653525 C68.981368,132.125968 69.4319872,134.689501 69.509792,137.292073 L74.920464,139.891391 L72.6641263,150.181309 L66.6634348,150.262639 C65.5060892,152.591941 64.024557,154.729303 62.2512571,156.62918 L64.241762,162.289774 L55.3914715,167.966633 L51.1446289,163.815531 C48.6548768,164.661367 46.0711107,165.133083 43.4452004,165.224173 L40.9068204,170.552939 Z" id="Fill-32" fill="#FFFFFF" mask="url(#mask-2)"></path>
                <path d="M42.4904713,119.461204 C32.1197463,119.461204 23.6844146,127.926068 23.6844146,138.333102 C23.6844146,148.740135 32.1197463,157.204999 42.4904713,157.204999 C52.8611962,157.204999 61.2965279,148.740135 61.2965279,138.333102 C61.2965279,127.926068 52.8611962,119.461204 42.4904713,119.461204 M42.4904713,159.202473 C31.0239961,159.202473 21.6939097,149.842975 21.6939097,138.333102 C21.6939097,126.826482 31.0239961,117.46373 42.4904713,117.46373 C53.9569464,117.46373 63.2870328,126.826482 63.2870328,138.333102 C63.2870328,149.842975 53.9569464,159.202473 42.4904713,159.202473" id="Fill-34" fill="#FFFFFF" mask="url(#mask-2)"></path>
                <path d="M42.4904713,123.726494 C34.4636144,123.726494 27.9344991,130.278468 27.9344991,138.333427 C27.9344991,146.388386 34.4636144,152.94036 42.4904713,152.94036 C50.5173281,152.94036 57.0464434,146.388386 57.0464434,138.333427 C57.0464434,130.278468 50.5173281,123.726494 42.4904713,123.726494 M42.4904713,154.937834 C33.3678642,154.937834 25.9439942,147.487973 25.9439942,138.333427 C25.9439942,129.175628 33.3678642,121.72902 42.4904713,121.72902 C51.6130783,121.72902 59.0369483,129.175628 59.0369483,138.333427 C59.0369483,147.487973 51.6130783,154.937834 42.4904713,154.937834" id="Fill-36" fill="#FFFFFF" mask="url(#mask-2)"></path>
                <path d="M42.4904713,134.104899 C40.1660543,134.104899 38.2760472,136.001523 38.2760472,138.334078 C38.2760472,140.663379 40.1660543,142.563257 42.4904713,142.563257 C44.8148882,142.563257 46.7048953,140.663379 46.7048953,138.334078 C46.7048953,136.001523 44.8148882,134.104899 42.4904713,134.104899 M42.4904713,144.56073 C39.0703041,144.56073 36.2855424,141.766219 36.2855424,138.334078 C36.2855424,134.898683 39.0703041,132.107425 42.4904713,132.107425 C45.9106384,132.107425 48.6954002,134.898683 48.6954002,138.334078 C48.6954002,141.766219 45.9106384,144.56073 42.4904713,144.56073" id="Fill-38" fill="#FFFFFF" mask="url(#mask-2)"></path>
                <path d="M113.428305,235.939298 L114.015082,236.15401 C116.582639,237.094189 119.266903,237.588677 121.996553,237.617956 L122.615749,237.624463 L124.927198,242.471752 L131.816161,240.949248 L131.88424,235.636749 L132.454808,235.373238 C134.973737,234.205334 137.252768,232.624272 139.233547,230.66909 L139.677682,230.229906 L144.621526,231.980136 L148.417749,226.016993 L144.786861,222.27905 L145.004066,221.686965 C145.970142,219.038848 146.466147,216.273616 146.479114,213.459585 L146.482356,212.831715 L151.150641,210.59025 L149.636691,203.677169 L144.456191,203.612105 L144.1936,203.042792 C143.007077,200.498778 141.399113,198.195503 139.41185,196.198029 L138.967714,195.752338 L140.69887,190.830225 L134.75329,187.017457 L130.999211,190.690337 L130.415675,190.478878 C127.802732,189.541952 125.076324,189.066982 122.311014,189.066982 L122.294804,189.066982 L121.665883,189.066982 L119.38361,184.274997 L112.494648,185.797502 L112.426568,191.168559 L111.865726,191.438576 C109.401909,192.612986 107.174748,194.190795 105.236113,196.129711 L104.791977,196.572148 L99.6892823,194.766614 L95.8930588,200.729757 L99.6957661,204.646627 L99.4882867,205.232206 C98.5838065,207.785979 98.116978,210.453615 98.0975268,213.160289 L98.0942849,213.784907 L93.160167,216.1565 L94.6741177,223.069581 L100.146385,223.137898 L100.408976,223.703958 C101.56308,226.160135 103.102966,228.38208 104.989731,230.31449 L105.424141,230.76018 L103.611939,235.916525 L109.557518,239.726039 L113.428305,235.939298 Z M123.811997,244.765269 L121.351422,239.602417 C118.819525,239.511327 116.329773,239.055877 113.927552,238.242574 L109.813626,242.263547 L101.206475,236.749348 L103.135384,231.261175 C101.430164,229.429615 100.003743,227.367077 98.882058,225.122359 L93.0693948,225.044282 L90.8746524,215.037394 L96.1199894,212.519406 C96.1945523,210.011178 96.6289621,207.541988 97.4102515,205.154128 L93.3644044,200.990014 L98.8626068,192.352729 L104.283004,194.272126 C106.121142,192.518643 108.192693,191.054697 110.449031,189.909565 L110.520352,184.187161 L120.498811,181.981481 L122.923726,187.076015 C125.501008,187.137826 128.04263,187.580263 130.49348,188.393567 L134.497183,184.483203 L143.101092,190.000655 L141.259712,195.23833 C143.065431,197.141461 144.563172,199.285329 145.72376,201.630897 L151.241414,201.699215 L153.436156,211.709356 L148.459894,214.097215 C148.385331,216.716053 147.924986,219.292599 147.082101,221.778055 L150.946404,225.756736 L145.448201,234.394021 L140.17693,232.526676 C138.296648,234.299678 136.173227,235.773384 133.858535,236.915262 L133.787214,242.559589 L123.811997,244.765269 Z" id="Fill-40" fill="#FFFFFF" mask="url(#mask-2)"></path>
                <path d="M122.296749,195.31413 C112.279388,195.31413 104.12934,203.492712 104.12934,213.545145 C104.12934,223.600831 112.279388,231.779412 122.296749,231.779412 C132.314111,231.779412 140.464159,223.600831 140.464159,213.545145 C140.464159,203.492712 132.314111,195.31413 122.296749,195.31413 M122.296749,233.776886 C111.180396,233.776886 102.138835,224.700417 102.138835,213.545145 C102.138835,202.389872 111.180396,193.316657 122.296749,193.316657 C133.413103,193.316657 142.454664,202.389872 142.454664,213.545145 C142.454664,224.700417 133.413103,233.776886 122.296749,233.776886" id="Fill-42" fill="#FFFFFF" mask="url(#mask-2)"></path>
                <path d="M122.296749,209.485784 C120.066347,209.485784 118.250902,211.307584 118.250902,213.545795 C118.250902,215.784007 120.066347,217.605807 122.296749,217.605807 C124.527152,217.605807 126.342597,215.784007 126.342597,213.545795 C126.342597,211.307584 124.527152,209.485784 122.296749,209.485784 M122.296749,219.603281 C118.967354,219.603281 116.260398,216.886847 116.260398,213.545795 C116.260398,210.204744 118.967354,207.48831 122.296749,207.48831 C125.626144,207.48831 128.333101,210.204744 128.333101,213.545795 C128.333101,216.886847 125.626144,219.603281 122.296749,219.603281" id="Fill-44" fill="#FFFFFF" mask="url(#mask-2)"></path>
                <path d="M168.53125,164.992544 C160.442798,164.992544 153.861813,171.755977 153.861813,180.071194 C153.861813,184.225549 156.610914,191.167908 159.988937,195.543482 C163.905109,200.62175 167.111313,204.672002 168.524766,206.448257 C169.941461,204.645976 173.079586,200.628256 176.143148,196.59427 C180.166302,191.294784 183.200688,184.193016 183.200688,180.071194 C183.200688,171.755977 176.619702,164.992544 168.53125,164.992544 L168.53125,164.992544 Z M168.537734,209.655927 L167.756445,208.683216 C167.7143,208.631164 163.713839,203.63748 158.413391,196.766691 C154.746842,192.013744 151.871308,184.680999 151.871308,180.071194 C151.871308,170.656391 159.343806,162.99507 168.53125,162.99507 C177.718695,162.99507 185.191192,170.656391 185.191192,180.071194 C185.191192,184.65172 182.053068,192.108087 177.725178,197.804466 C173.60801,203.230828 169.354684,208.621404 169.31254,208.676709 L168.537734,209.655927 Z" id="Fill-46" fill="#FFFFFF" mask="url(#mask-2)"></path>
                <path d="M168.53125,172.771956 C164.683157,172.771956 161.551516,175.995892 161.551516,179.958307 C161.551516,183.920722 164.683157,187.144658 168.53125,187.144658 C172.379343,187.144658 175.510985,183.920722 175.510985,179.958307 C175.510985,175.995892 172.379343,172.771956 168.53125,172.771956 M168.53125,189.142132 C163.584165,189.142132 159.561011,185.023562 159.561011,179.958307 C159.561011,174.893052 163.584165,170.774482 168.53125,170.774482 C173.478336,170.774482 177.50149,174.893052 177.50149,179.958307 C177.50149,185.023562 173.478336,189.142132 168.53125,189.142132" id="Fill-48" fill="#FFFFFF" mask="url(#mask-2)"></path>
                <path d="M60.7418449,89.7495956 C58.3850093,89.7495956 56.4658255,91.7275501 56.4658255,94.1609546 C56.4658255,95.4134422 57.3476126,97.6126152 58.3882512,98.9626992 C59.3478431,100.205427 60.1745186,101.259469 60.7353612,101.968669 C61.2767526,101.278988 62.032107,100.303024 62.7777359,99.3205528 C64.0323375,97.6679198 65.0178643,95.4004293 65.0178643,94.1609546 C65.0178643,91.7275501 63.0986805,89.7495956 60.7418449,89.7495956 L60.7418449,89.7495956 Z M60.7483286,105.179592 L59.9670393,104.206881 C59.9670393,104.206881 58.6216654,102.531476 56.8159468,100.185908 C55.4802986,98.458451 54.4753206,95.8688922 54.4753206,94.1609546 C54.4753206,90.6279636 57.2860172,87.7521219 60.7418449,87.7521219 C64.1976726,87.7521219 67.0083692,90.6279636 67.0083692,94.1609546 C67.0083692,95.8591326 65.9191027,98.4812235 64.3597658,100.530749 C62.9560384,102.385081 61.5231343,104.200375 61.5231343,104.200375 L60.7483286,105.179592 Z" id="Fill-50" fill="#FFFFFF" mask="url(#mask-2)"></path>
                <polygon id="Fill-52" fill="#FFFFFF" mask="url(#mask-2)" points="46.8024754 171.881226 47.6712951 171.155759 47.7815185 171.31842"></polygon>
                <path d="M94.7609997,178.017765 L99.1861449,178.678167 L100.541244,175.259039 L101.166924,175.213494 C103.047206,175.086618 104.895069,174.631168 106.661885,173.856903 L107.232453,173.609659 L110.007489,175.974746 L113.599475,173.30711 L112.173055,169.979071 L112.584771,169.504102 C113.85234,168.040156 114.850835,166.387523 115.544594,164.588495 L115.768282,164.00617 L119.344059,163.71338 L120.0054,159.272742 L116.669521,157.945431 L116.624135,157.320814 C116.487976,155.398164 116.014664,153.524312 115.230133,151.75131 L114.974026,151.178745 L117.31141,148.413512 L114.649839,144.808951 L111.307477,146.256631 L110.834165,145.849979 C109.375325,144.594238 107.741426,143.615021 105.977851,142.938352 L105.391074,142.71388 L105.092822,139.044254 L100.667677,138.380599 L99.2996102,141.842019 L98.6804141,141.89407 C96.8131,142.043718 94.9976558,142.505675 93.2827095,143.27018 L92.7121413,143.523931 L89.8495748,141.08402 L86.2543469,143.754909 L87.7553303,147.242355 L87.3500972,147.717324 C86.1441235,149.135726 85.1910153,150.729801 84.5199494,152.454005 L84.2930188,153.03633 L80.5097628,153.345385 L79.8484224,157.78277 L83.3723293,159.188159 L83.4209573,159.812776 C83.5571156,161.654095 84.0044929,163.45963 84.7468799,165.177327 L84.9932616,165.749893 L82.5456538,168.645254 L85.2039828,172.249815 L88.6500849,170.759843 L89.1233971,171.169748 C90.540092,172.402716 92.1415731,173.381934 93.8824544,174.071615 L94.4595063,174.29934 L94.7609997,178.017765 Z M100.453714,180.8871 L92.9066532,179.761488 L92.575983,175.688463 C91.0360973,175.018301 89.6031931,174.146439 88.2999635,173.085891 L84.5426424,174.709245 L80.0040319,168.557417 L82.6818121,165.395292 C82.0690997,163.843509 81.6703504,162.229914 81.4920478,160.587041 L77.6471964,159.054777 L78.7753653,151.484547 L82.9022589,151.146212 C83.5538737,149.626961 84.4064841,148.202053 85.4406389,146.904021 L83.8002554,143.091253 L89.9338633,138.536753 L93.0557789,141.197882 C94.6118739,140.566759 96.2360481,140.150347 97.8991247,139.961661 L99.400108,136.168413 L106.950411,137.300531 L107.274597,141.308492 C108.840418,141.972147 110.305741,142.850515 111.647873,143.930583 L115.31118,142.346267 L119.84979,148.501349 L117.295201,151.520332 C117.950057,153.13718 118.3715,154.822345 118.556286,156.546549 L122.209867,158.000736 L121.078457,165.577472 L117.162284,165.896287 C116.484735,167.490362 115.586738,168.980335 114.490988,170.330419 L116.053567,173.970766 L109.919959,178.522013 L106.87909,175.932454 C105.277609,176.570084 103.617774,176.979989 101.932004,177.155663 L100.453714,180.8871 Z" id="Fill-54" fill="#FFFFFF" mask="url(#mask-2)"></path>
                <path d="M99.9923967,146.954446 C97.541547,146.954446 95.1620184,147.73847 93.1553042,149.228442 C90.6785196,151.069762 89.064071,153.76993 88.6069681,156.831205 C88.1498652,159.89248 88.9052196,162.943995 90.7368732,165.432704 C92.5717685,167.91816 95.2625162,169.541514 98.3131108,169.996964 C101.363705,170.458921 104.404574,169.697668 106.884601,167.856349 C109.364627,166.01503 110.979076,163.314861 111.432937,160.260093 C112.37632,153.945604 108.022495,148.037766 101.726794,147.084574 C101.1465,146.996737 100.566207,146.954446 99.9923967,146.954446 M100.053992,172.12782 C99.3796843,172.12782 98.6988927,172.075768 98.021343,171.974919 C94.4423244,171.438138 91.2847483,169.538261 89.135392,166.620127 C86.9892777,163.701994 86.1010067,160.123458 86.6391563,156.538416 C87.1740639,152.946867 89.0673129,149.781489 91.9687817,147.621355 C94.8767343,145.464473 98.4427854,144.576346 102.021804,145.109873 L102.021804,145.109873 C109.40353,146.225725 114.506225,153.155072 113.403991,160.552882 C112.872325,164.137925 110.975834,167.303303 108.067881,169.460184 C105.714288,171.210413 102.926284,172.12782 100.053992,172.12782" id="Fill-56" fill="#FFFFFF" mask="url(#mask-2)"></path>
                <path d="M83.6498329,199.308427 C73.1688846,195.092261 64.5195898,186.7315 59.9258676,176.370011 L61.7445536,175.559961 C66.1307965,185.449733 74.3845838,193.429869 84.3922199,197.454095 L83.6498329,199.308427 Z" id="Fill-58" fill="#FFFFFF" mask="url(#mask-2)"></path>
                <path d="M139.033848,178.263382 L137.257306,177.365495 C139.90591,172.085528 141.387442,166.398909 141.656517,160.468299 L143.647022,160.559389 C143.361737,166.776282 141.812126,172.729664 139.033848,178.263382" id="Fill-60" fill="#FFFFFF" mask="url(#mask-2)"></path>
                <path d="M85.93632,188.438136 C79.0311484,185.178415 73.4324482,179.57638 70.1646486,172.656792 L71.9638835,171.801197 C75.0339293,178.30112 80.2954756,183.568074 86.7856886,186.629349 L85.93632,188.438136 Z" id="Fill-62" fill="#FFFFFF" mask="url(#mask-2)"></path>
                <path d="M128.871575,174.273315 L127.120968,173.320123 C129.429176,169.061665 130.680536,164.429087 130.839387,159.549266 L132.82665,159.61433 C132.661315,164.80646 131.328908,169.738334 128.871575,174.273315" id="Fill-64" fill="#FFFFFF" mask="url(#mask-2)"></path>
                <path d="M80.3933799,134.464054 L79.1355364,132.915523 C84.9838602,128.130045 92.3688278,125.494941 99.9288561,125.494941 C106.062464,125.494941 112.05343,127.199626 117.246897,130.430068 L116.196533,132.128246 C111.320768,129.09625 105.692891,127.492415 99.9288561,127.492415 C92.8259307,127.492415 85.8883404,129.968111 80.3933799,134.464054" id="Fill-66" fill="#FFFFFF" mask="url(#mask-2)"></path>
                <path d="M163.928127,101.304363 C161.318426,101.304363 159.198246,103.431965 159.198246,106.050803 C159.198246,108.666388 161.318426,110.797243 163.928127,110.797243 C165.195696,110.797243 166.38546,110.302754 167.276973,109.40812 C168.168486,108.513486 168.658007,107.32281 168.658007,106.050803 C168.658007,103.431965 166.534586,101.304363 163.928127,101.304363 L163.928127,101.304363 Z M163.928127,112.794717 C160.222675,112.794717 157.207741,109.769227 157.207741,106.050803 C157.207741,102.332379 160.222675,99.3068893 163.928127,99.3068893 C167.633578,99.3068893 170.648512,102.332379 170.648512,106.050803 C170.648512,107.856337 169.951511,109.551262 168.683942,110.823269 C167.416373,112.092022 165.727361,112.794717 163.928127,112.794717 L163.928127,112.794717 Z M162.005701,134.493658 L165.850552,134.493658 L165.850552,153.59328 C165.850552,154.836008 166.862014,155.847758 168.100406,155.847758 C169.338799,155.847758 170.35026,154.836008 170.35026,153.59328 L170.35026,122.469777 L172.340765,122.469777 L172.340765,134.90031 C172.512584,134.939348 172.690887,134.913323 172.875673,134.825486 C173.387888,134.574988 173.939005,133.803976 173.939005,132.70439 L173.939005,116.770145 C173.939005,115.625013 173.835265,115.260653 171.65349,115.260653 L155.343669,115.260653 C154.293305,115.260653 153.917249,115.488378 153.917249,116.770145 L153.917249,132.70439 C153.917249,133.670595 154.23171,134.373289 154.802278,134.679091 C155.025966,134.802713 155.278832,134.848258 155.51873,134.822233 L155.51873,122.469777 L157.509235,122.469777 L157.509235,153.59328 C157.509235,154.836008 158.517455,155.847758 159.755847,155.847758 C160.997481,155.847758 162.005701,154.836008 162.005701,153.59328 L162.005701,134.493658 Z M168.100406,157.848485 C166.022371,157.848485 164.291215,156.338994 163.928127,154.357786 C163.56828,156.338994 161.833882,157.848485 159.755847,157.848485 C157.418462,157.848485 155.51873,155.938848 155.51873,153.59328 L155.51873,136.826213 C154.957887,136.839226 154.380835,136.72211 153.858895,136.43908 C152.630228,135.775424 151.926744,134.415581 151.926744,132.70439 L151.926744,116.770145 C151.926744,114.476629 153.110024,113.26318 155.343669,113.26318 L171.65349,113.26318 C173.14799,113.26318 175.929509,113.26318 175.929509,116.770145 L175.929509,132.70439 C175.929509,134.4351 175.073657,135.97387 173.747735,136.62126 C173.28739,136.845732 172.804352,136.946582 172.340765,136.917303 L172.340765,153.59328 C172.340765,155.938848 170.437791,157.848485 168.100406,157.848485 L168.100406,157.848485 Z" id="Fill-68" fill="#FFFFFF" mask="url(#mask-2)"></path>
                <path d="M137.196683,113.180223 C135.708668,113.180223 134.49621,114.393672 134.49621,115.886897 C134.49621,117.380123 135.708668,118.596825 137.196683,118.596825 C138.684699,118.596825 139.893915,117.380123 139.893915,115.886897 C139.893915,114.393672 138.684699,113.180223 137.196683,113.180223 L137.196683,113.180223 Z M135.601686,133.88368 L138.791681,133.88368 L138.791681,146.558204 C138.791681,147.166555 139.281202,147.657791 139.887431,147.657791 C140.49366,147.657791 140.983181,147.166555 140.983181,146.558204 L140.983181,133.994289 L141.864969,133.890187 C142.231299,133.844642 143.301115,133.555105 143.301115,133.083389 L143.301115,122.803231 C143.301115,122.230666 143.301115,122.185121 142.179429,122.185121 L133.757065,122.185121 C133.393976,122.185121 132.2885,122.185121 125.632952,115.841352 C125.487068,115.714477 125.399538,115.704717 125.399538,115.704717 C125.409264,115.711224 125.367119,115.769782 125.354152,115.870631 C125.344426,115.958468 125.35091,116.134142 125.516245,116.326081 L133.406944,126.128017 L133.406944,146.558204 C133.406944,147.166555 133.899707,147.657791 134.505936,147.657791 C135.108923,147.657791 135.601686,147.166555 135.601686,146.558204 L135.601686,133.88368 Z M139.887431,149.658517 C138.733327,149.658517 137.725107,149.017634 137.196683,148.077455 C136.665018,149.017634 135.656798,149.658517 134.505936,149.658517 C132.800715,149.658517 131.416439,148.266142 131.416439,146.558204 L131.416439,126.833964 L123.992569,117.611101 C123.039461,116.514768 123.250182,115.050821 124.021746,114.283062 C124.692812,113.6129 125.869608,113.381922 126.978326,114.370899 C129.678799,116.940939 133.014678,119.8363 133.854321,120.184394 L135.287225,120.184394 C133.650084,119.45242 132.505705,117.799787 132.505705,115.886897 C132.505705,113.294085 134.609675,111.182749 137.196683,111.182749 C139.78045,111.182749 141.88442,113.294085 141.88442,115.886897 C141.88442,117.799787 140.740042,119.45242 139.1029,120.184394 L142.179429,120.184394 C143.109845,120.184394 145.291619,120.184394 145.291619,122.803231 L145.291619,133.083389 C145.291619,134.566855 144.07592,135.347627 142.976928,135.685961 L142.976928,146.558204 C142.976928,148.266142 141.58941,149.658517 139.887431,149.658517 L139.887431,149.658517 Z" id="Fill-70" fill="#FFFFFF" mask="url(#mask-2)"></path>
                <path d="M24.338947,193.184576 C24.1509189,193.184576 23.9758582,193.220362 23.8332162,193.295185 C23.4830948,193.477365 23.1816014,193.841725 23.0648942,194.219098 C23.0065407,194.398025 22.9643964,194.664789 23.0875873,194.89902 C25.1332039,198.998071 28.4334221,205.439435 29.1693253,206.441425 C30.4595875,208.198161 31.4386306,208.978933 33.8343685,208.978933 L41.8288067,208.978933 C45.3138112,208.978933 47.6544374,205.283281 47.6544374,201.83162 L47.6544374,181.694222 C47.6544374,181.082618 47.1227716,180.565357 46.490608,180.565357 C45.8616863,180.565357 45.3300205,181.082618 45.3300205,181.694222 L45.3300205,191.928835 L42.4771796,191.928835 L42.4771796,179.56662 C42.4771796,178.955016 41.9455138,178.437755 41.3165921,178.437755 C40.6876703,178.437755 40.1560045,178.955016 40.1560045,179.56662 L40.1560045,191.928835 L37.2999218,191.928835 L37.2999218,179.56662 C37.2999218,178.955016 36.768256,178.437755 36.1393343,178.437755 C35.5104125,178.437755 34.9787467,178.955016 34.9787467,179.56662 L34.9787467,191.928835 L32.1259059,191.928835 L32.1259059,181.694222 C32.1259059,181.059846 31.6396262,180.565357 31.0236719,180.565357 C30.3850246,180.565357 29.7982471,181.102137 29.7982471,181.694222 L29.7982471,202.189474 L25.6129998,193.848232 C25.4865671,193.597734 25.1915574,193.376516 24.8284686,193.262653 C24.6631335,193.210602 24.4977984,193.184576 24.338947,193.184576 M41.8288067,210.976406 L33.8343685,210.976406 C30.6540993,210.976406 29.1271811,209.749945 27.5678442,207.628849 C26.4915452,206.168155 21.8394694,196.863962 21.3142873,195.806667 C20.9803753,195.162531 20.9252636,194.381759 21.1651616,193.617254 C21.4439619,192.732379 22.0988186,191.948355 22.9125266,191.525437 C23.6387043,191.144811 24.556152,191.079746 25.4282136,191.35627 C26.2937914,191.632793 27.0070016,192.208612 27.3862998,192.937332 L27.8077422,193.776661 L27.8077422,181.694222 C27.8077422,179.999298 29.2795487,178.567883 31.0236719,178.567883 C31.7757845,178.567883 32.4630598,178.8379 32.9979675,179.290097 C33.1406095,177.696022 34.492467,176.440281 36.1393343,176.440281 C37.2091496,176.440281 38.1590159,176.973808 38.7263422,177.783858 C39.2969104,176.973808 40.2435349,176.440281 41.3165921,176.440281 C42.9667012,176.440281 44.3250425,177.705781 44.4579589,179.306363 C45.005834,178.84766 45.7158024,178.567883 46.490608,178.567883 C48.2314893,178.567883 49.6449423,179.970019 49.6449423,181.694222 L49.6449423,201.83162 C49.6449423,206.229966 46.6559431,210.976406 41.8288067,210.976406" id="Fill-72" fill="#FFFFFF" mask="url(#mask-2)"></path>
                <path d="M37.2444859,204.279014 C37.2380022,204.262748 36.3756662,202.245755 34.1031191,200.697224 C31.8370557,199.148694 28.9842149,199.314608 28.9582799,199.314608 L28.8286054,197.320388 C28.9744893,197.310628 32.3978983,197.112182 35.2215624,199.044592 C38.0128078,200.947722 39.0437208,203.416912 39.085865,203.521015 L37.2444859,204.279014 Z" id="Fill-74" fill="#FFFFFF" mask="url(#mask-2)"></path>
                <path d="M46.5697095,201.301346 C45.3086242,201.301346 43.4769707,201.089887 41.5415775,200.149708 C38.6692854,198.750826 37.1845114,196.473576 37.122916,196.379233 L38.7957181,195.295912 L37.9593171,195.839199 L38.7924763,195.295912 C38.8054437,195.312178 40.0600454,197.208803 42.4071553,198.350681 C45.2632381,199.73655 47.8178274,199.206276 47.8437623,199.203023 L48.2619629,201.154952 C48.2036093,201.167965 47.564962,201.301346 46.5697095,201.301346" id="Fill-76" fill="#FFFFFF" mask="url(#mask-2)"></path>
                <mask id="mask-4" fill="white">
                    <use xlink:href="#path-3"></use>
                </mask>
                <g id="Clip-79"></g>
                <polygon id="Fill-78" fill="#FFFFFF" mask="url(#mask-4)" points="47.9115173 192.463338 33.0346005 192.463338 33.0346005 190.465865 47.9115173 190.465865"></polygon>
                <path d="M44.76237,226.486432 C41.5821008,223.848075 38.5574411,220.96898 35.7791631,217.927225 L37.2477278,216.577141 C39.9644103,219.550579 42.9209909,222.367863 46.0299391,224.947662 L44.76237,226.486432 Z" id="Fill-80" fill="#FFFFFF" mask="url(#mask-4)"></path>
                <path d="M21.729246,94.2888059 C19.7160481,94.2888059 18.0756646,95.9349324 18.0756646,97.9551787 C18.0756646,99.9754249 19.7160481,101.621551 21.729246,101.621551 C23.742444,101.621551 25.3828275,99.9754249 25.3828275,97.9551787 C25.3828275,95.9349324 23.742444,94.2888059 21.729246,94.2888059 M21.729246,103.619025 C18.617056,103.619025 16.0851597,101.078265 16.0851597,97.9551787 C16.0851597,94.8320927 18.617056,92.2913322 21.729246,92.2913322 C24.8414361,92.2913322 27.3733323,94.8320927 27.3733323,97.9551787 C27.3733323,101.078265 24.8414361,103.619025 21.729246,103.619025" id="Fill-81" fill="#FFFFFF" mask="url(#mask-4)"></path>
                <polygon id="Fill-82" fill="#FFFFFF" mask="url(#mask-4)" points="22.725471 93.2890931 20.7349661 93.2890931 20.7349661 72.7775753 22.725471 72.7775753"></polygon>
                <path d="M21.729246,39.0658143 C15.2617261,39.0658143 9.99693794,44.4759101 9.99693794,51.1287338 C9.99693794,54.4697852 12.2111315,60.0588078 14.9342978,63.5852923 C17.9881342,67.5444544 20.5070631,70.7326047 21.7227623,72.2616155 C22.9319778,70.7163386 25.3763437,67.5867462 27.7623561,64.4408878 C31.0107044,60.1661638 33.4615541,54.4437595 33.4615541,51.1287338 C33.4615541,44.4759101 28.1967659,39.0658143 21.729246,39.0658143 L21.729246,39.0658143 Z M21.7324879,75.4692851 L20.9511985,74.4933207 C20.9187799,74.4510289 17.6704315,70.3910172 13.3619934,64.808501 C10.3600268,60.9209096 8.00643306,54.9089691 8.00643306,51.1287338 C8.00643306,43.3763236 14.162734,37.0683406 21.729246,37.0683406 C29.2957581,37.0683406 35.452059,43.3763236 35.452059,51.1287338 C35.452059,54.8894498 32.8845022,60.9957336 29.3476279,65.6510836 C25.9987817,70.0591893 22.542954,74.4445225 22.5105354,74.4868143 L21.7324879,75.4692851 Z" id="Fill-83" fill="#FFFFFF" mask="url(#mask-4)"></path>
                <path d="M21.7302186,45.3861595 C18.7055589,45.3861595 16.2449836,47.9204136 16.2449836,51.0402464 C16.2449836,54.1568259 18.7055589,56.6910801 21.7302186,56.6910801 C24.7548783,56.6910801 27.2154535,54.1568259 27.2154535,51.0402464 C27.2154535,47.9204136 24.7548783,45.3861595 21.7302186,45.3861595 M21.7302186,58.6885538 C17.6065668,58.6885538 14.2544788,55.2564124 14.2544788,51.0402464 C14.2544788,46.8208271 17.6065668,43.3886858 21.7302186,43.3886858 C25.8538704,43.3886858 29.2059584,46.8208271 29.2059584,51.0402464 C29.2059584,55.2564124 25.8538704,58.6885538 21.7302186,58.6885538" id="Fill-84" fill="#FFFFFF" mask="url(#mask-4)"></path>
                <path d="M164.041916,80.2820907 C162.028718,80.2820907 160.388335,81.9282172 160.388335,83.9484635 C160.388335,85.9687097 162.028718,87.6148362 164.041916,87.6148362 C166.055114,87.6148362 167.695497,85.9687097 167.695497,83.9484635 C167.695497,81.9282172 166.055114,80.2820907 164.041916,80.2820907 M164.041916,89.61231 C160.929726,89.61231 158.39783,87.0715494 158.39783,83.9484635 C158.39783,80.8253775 160.929726,78.2846169 164.041916,78.2846169 C167.154106,78.2846169 169.686002,80.8253775 169.686002,83.9484635 C169.686002,87.0715494 167.154106,89.61231 164.041916,89.61231" id="Fill-85" fill="#FFFFFF" mask="url(#mask-4)"></path>
                <polygon id="Fill-86" fill="#FFFFFF" mask="url(#mask-4)" points="165.036844 79.2840044 163.046339 79.2840044 163.046339 58.7724867 165.036844 58.7724867"></polygon>
                <path d="M164.041916,25.0590991 C157.574396,25.0590991 152.31285,30.4691949 152.31285,37.1220186 C152.31285,40.4630699 154.527043,46.0520925 157.246968,49.5785771 C160.300804,53.5377392 162.822975,56.7258895 164.035432,58.2549003 C165.244648,56.7096234 167.689014,53.580031 170.078268,50.4341725 C173.323374,46.1594486 175.774224,40.4370442 175.774224,37.1220186 C175.774224,30.4691949 170.509436,25.0590991 164.041916,25.0590991 L164.041916,25.0590991 Z M164.045158,61.4625698 L163.263869,60.4866055 C163.23145,60.4443137 159.983102,56.3843019 155.674663,50.8017858 C152.672697,46.9109412 150.319103,40.9022539 150.319103,37.1220186 C150.319103,29.3696083 156.475404,23.0616253 164.041916,23.0616253 C171.608428,23.0616253 177.764729,29.3696083 177.764729,37.1220186 C177.764729,40.8794814 175.197172,46.9890183 171.660298,51.6443683 C168.314694,56.052474 164.855624,60.4378073 164.823205,60.480099 L164.045158,61.4625698 Z" id="Fill-87" fill="#FFFFFF" mask="url(#mask-4)"></path>
                <path d="M164.041916,31.3784683 C161.017256,31.3784683 158.556681,33.9127225 158.556681,37.0325552 C158.556681,40.1491347 161.017256,42.6833889 164.041916,42.6833889 C167.066576,42.6833889 169.527151,40.1491347 169.527151,37.0325552 C169.527151,33.9127225 167.066576,31.3784683 164.041916,31.3784683 M164.041916,44.6808626 C159.918264,44.6808626 156.566176,41.2487213 156.566176,37.0325552 C156.566176,32.8131359 159.918264,29.3809946 164.041916,29.3809946 C168.165568,29.3809946 171.517656,32.8131359 171.517656,37.0325552 C171.517656,41.2487213 168.165568,44.6808626 164.041916,44.6808626" id="Fill-88" fill="#FFFFFF" mask="url(#mask-4)"></path>
                <path d="M119.413111,57.8898896 C117.399913,57.8898896 115.759529,59.5360162 115.759529,61.5562624 C115.759529,63.5765086 117.399913,65.2226352 119.413111,65.2226352 C121.426309,65.2226352 123.066692,63.5765086 123.066692,61.5562624 C123.066692,59.5360162 121.426309,57.8898896 119.413111,57.8898896 M119.413111,67.2201089 C116.300921,67.2201089 113.769025,64.6793484 113.769025,61.5562624 C113.769025,58.4331765 116.300921,55.8924159 119.413111,55.8924159 C122.525301,55.8924159 125.057197,58.4331765 125.057197,61.5562624 C125.057197,64.6793484 122.525301,67.2201089 119.413111,67.2201089" id="Fill-89" fill="#FFFFFF" mask="url(#mask-4)"></path>
                <polygon id="Fill-90" fill="#FFFFFF" mask="url(#mask-4)" points="120.409336 56.8921287 118.418831 56.8921287 118.418831 36.380611 120.409336 36.380611"></polygon>
                <path d="M119.413111,2.66657271 C112.945591,2.66657271 107.680803,8.0766685 107.680803,14.7294922 C107.680803,18.0705436 109.894996,23.6595662 112.618163,27.189304 C115.671999,31.1452128 118.19417,34.3333631 119.406627,35.8623739 C120.615843,34.3203502 123.060209,31.1875046 125.449463,28.0416462 C128.694569,23.7669223 131.145419,18.0445179 131.145419,14.7294922 C131.145419,8.0766685 125.880631,2.66657271 119.413111,2.66657271 L119.413111,2.66657271 Z M119.419595,39.0700435 L118.635063,38.0940791 C118.605887,38.0517873 115.354296,33.9917756 111.045858,28.4125126 C108.043892,24.5184148 105.690298,18.5097275 105.690298,14.7294922 C105.690298,6.97708199 111.846599,0.669098981 119.413111,0.669098981 C126.979623,0.669098981 133.135924,6.97708199 133.135924,14.7294922 C133.135924,18.486955 130.568367,24.596492 127.031493,29.251842 C123.685888,33.6599477 120.226819,38.0452809 120.1944,38.0875727 L119.419595,39.0700435 Z" id="Fill-91" fill="#FFFFFF" mask="url(#mask-4)"></path>
                <path d="M119.413111,8.98659261 C116.388451,8.98659261 113.927876,11.5208467 113.927876,14.6406795 C113.927876,17.757259 116.388451,20.2915132 119.413111,20.2915132 C122.437771,20.2915132 124.898346,17.757259 124.898346,14.6406795 C124.898346,11.5208467 122.437771,8.98659261 119.413111,8.98659261 M119.413111,22.2889869 C115.289459,22.2889869 111.937371,18.8568455 111.937371,14.6406795 C111.937371,10.4212602 115.289459,6.98911888 119.413111,6.98911888 C123.536763,6.98911888 126.888851,10.4212602 126.888851,14.6406795 C126.888851,18.8568455 123.536763,22.2889869 119.413111,22.2889869" id="Fill-92" fill="#FFFFFF" mask="url(#mask-4)"></path>
            </g>
        </g>
    </g>
</svg>